<mxfile host="app.diagrams.net" agent="Mozilla/5.0 (Macintosh; Intel Mac OS X 10_15_7) AppleWebKit/537.36 (KHTML, like Gecko) Chrome/133.0.0.0 Safari/537.36" version="26.1.1">
  <diagram name="Page-1" id="UjDWoxmA90pxJJKdMdb_">
    <mxGraphModel dx="3150" dy="2957" grid="1" gridSize="10" guides="1" tooltips="1" connect="1" arrows="1" fold="1" page="1" pageScale="1" pageWidth="827" pageHeight="1169" math="0" shadow="0">
      <root>
        <mxCell id="0" />
        <mxCell id="1" parent="0" />
        <mxCell id="naydUd_5CI0JEKa2Fgju-1" value="User Requests Refund" style="rounded=1;whiteSpace=wrap;arcSize=50;strokeWidth=2;" vertex="1" parent="1">
          <mxGeometry x="1624" y="650" width="179" height="39" as="geometry" />
        </mxCell>
        <mxCell id="naydUd_5CI0JEKa2Fgju-2" value="Validate Order Exists" style="whiteSpace=wrap;strokeWidth=2;" vertex="1" parent="1">
          <mxGeometry x="1609" y="739" width="209" height="54" as="geometry" />
        </mxCell>
        <mxCell id="naydUd_5CI0JEKa2Fgju-3" value="get_order_details Tool" style="whiteSpace=wrap;strokeWidth=2;" vertex="1" parent="1">
          <mxGeometry x="1603" y="843" width="220" height="54" as="geometry" />
        </mxCell>
        <mxCell id="naydUd_5CI0JEKa2Fgju-84" value="" style="edgeStyle=orthogonalEdgeStyle;rounded=0;orthogonalLoop=1;jettySize=auto;html=1;" edge="1" parent="1" source="naydUd_5CI0JEKa2Fgju-4" target="naydUd_5CI0JEKa2Fgju-83">
          <mxGeometry relative="1" as="geometry">
            <Array as="points">
              <mxPoint x="1713" y="1770" />
              <mxPoint x="1450" y="1770" />
            </Array>
          </mxGeometry>
        </mxCell>
        <mxCell id="naydUd_5CI0JEKa2Fgju-4" value="Valid Order?" style="rhombus;strokeWidth=2;whiteSpace=wrap;" vertex="1" parent="1">
          <mxGeometry x="1643" y="947" width="140" height="140" as="geometry" />
        </mxCell>
        <mxCell id="naydUd_5CI0JEKa2Fgju-5" value="Notify Invalid Order ID" style="whiteSpace=wrap;strokeWidth=2;" vertex="1" parent="1">
          <mxGeometry x="1333" y="2536" width="221" height="54" as="geometry" />
        </mxCell>
        <mxCell id="naydUd_5CI0JEKa2Fgju-6" value="create_refund_workflow Tool" style="whiteSpace=wrap;strokeWidth=2;" vertex="1" parent="1">
          <mxGeometry x="1148" y="1000" width="260" height="78" as="geometry" />
        </mxCell>
        <mxCell id="naydUd_5CI0JEKa2Fgju-7" value="Collect Refund Reason" style="whiteSpace=wrap;strokeWidth=2;" vertex="1" parent="1">
          <mxGeometry x="1168" y="1128" width="220" height="54" as="geometry" />
        </mxCell>
        <mxCell id="naydUd_5CI0JEKa2Fgju-8" value="get_refund_verification_criteria Tool" style="whiteSpace=wrap;strokeWidth=2;" vertex="1" parent="1">
          <mxGeometry x="1130" y="1232" width="296" height="78" as="geometry" />
        </mxCell>
        <mxCell id="naydUd_5CI0JEKa2Fgju-9" value="Request Supporting Evidence" style="whiteSpace=wrap;strokeWidth=2;" vertex="1" parent="1">
          <mxGeometry x="1148" y="1360" width="260" height="78" as="geometry" />
        </mxCell>
        <mxCell id="naydUd_5CI0JEKa2Fgju-10" value="Image Provided?" style="rhombus;strokeWidth=2;whiteSpace=wrap;" vertex="1" parent="1">
          <mxGeometry x="610" y="1114" width="170" height="170" as="geometry" />
        </mxCell>
        <mxCell id="naydUd_5CI0JEKa2Fgju-11" value="Late Delivery?" style="rhombus;strokeWidth=2;whiteSpace=wrap;" vertex="1" parent="1">
          <mxGeometry x="878" y="1386" width="155" height="155" as="geometry" />
        </mxCell>
        <mxCell id="naydUd_5CI0JEKa2Fgju-12" value="Skip Image Verification" style="whiteSpace=wrap;strokeWidth=2;" vertex="1" parent="1">
          <mxGeometry x="560" y="1680" width="225" height="54" as="geometry" />
        </mxCell>
        <mxCell id="naydUd_5CI0JEKa2Fgju-13" value="Reject: No Evidence" style="whiteSpace=wrap;strokeWidth=2;" vertex="1" parent="1">
          <mxGeometry x="1031" y="2536" width="205" height="54" as="geometry" />
        </mxCell>
        <mxCell id="naydUd_5CI0JEKa2Fgju-14" value="verify_refund_image Tool" style="whiteSpace=wrap;strokeWidth=2;" vertex="1" parent="1">
          <mxGeometry x="255" y="1260" width="242" height="54" as="geometry" />
        </mxCell>
        <mxCell id="naydUd_5CI0JEKa2Fgju-15" value="update_refund_workflow Tool" style="whiteSpace=wrap;strokeWidth=2;" vertex="1" parent="1">
          <mxGeometry x="246" y="1425" width="260" height="78" as="geometry" />
        </mxCell>
        <mxCell id="naydUd_5CI0JEKa2Fgju-16" value="Verification Score?" style="rhombus;strokeWidth=2;whiteSpace=wrap;" vertex="1" parent="1">
          <mxGeometry x="282" y="1614" width="187" height="187" as="geometry" />
        </mxCell>
        <mxCell id="naydUd_5CI0JEKa2Fgju-17" value="High Confidence Approval" style="whiteSpace=wrap;strokeWidth=2;" vertex="1" parent="1">
          <mxGeometry x="20" y="1873" width="244" height="54" as="geometry" />
        </mxCell>
        <mxCell id="naydUd_5CI0JEKa2Fgju-18" value="Manual Review Path" style="whiteSpace=wrap;strokeWidth=2;" vertex="1" parent="1">
          <mxGeometry x="418" y="2304" width="202" height="54" as="geometry" />
        </mxCell>
        <mxCell id="naydUd_5CI0JEKa2Fgju-19" value="Rejection Path" style="whiteSpace=wrap;strokeWidth=2;" vertex="1" parent="1">
          <mxGeometry x="747" y="1873" width="165" height="54" as="geometry" />
        </mxCell>
        <mxCell id="naydUd_5CI0JEKa2Fgju-20" value="Evidence Matches Claim?" style="rhombus;strokeWidth=2;whiteSpace=wrap;" vertex="1" parent="1">
          <mxGeometry x="26" y="1999" width="232" height="232" as="geometry" />
        </mxCell>
        <mxCell id="naydUd_5CI0JEKa2Fgju-21" value="Approve Refund" style="whiteSpace=wrap;strokeWidth=2;" vertex="1" parent="1">
          <mxGeometry x="55" y="2304" width="173" height="54" as="geometry" />
        </mxCell>
        <mxCell id="naydUd_5CI0JEKa2Fgju-22" value="Generate Rejection Reason" style="whiteSpace=wrap;strokeWidth=2;" vertex="1" parent="1">
          <mxGeometry x="702" y="2088" width="254" height="54" as="geometry" />
        </mxCell>
        <mxCell id="naydUd_5CI0JEKa2Fgju-23" value="Reject Refund" style="whiteSpace=wrap;strokeWidth=2;" vertex="1" parent="1">
          <mxGeometry x="749" y="2304" width="161" height="54" as="geometry" />
        </mxCell>
        <mxCell id="naydUd_5CI0JEKa2Fgju-24" value="process_refund_decision Tool" style="whiteSpace=wrap;strokeWidth=2;" vertex="1" parent="1">
          <mxGeometry x="79" y="2408" width="260" height="78" as="geometry" />
        </mxCell>
        <mxCell id="naydUd_5CI0JEKa2Fgju-25" value="process_refund_decision Tool: Manual Review" style="whiteSpace=wrap;strokeWidth=2;" vertex="1" parent="1">
          <mxGeometry x="389" y="2408" width="260" height="78" as="geometry" />
        </mxCell>
        <mxCell id="naydUd_5CI0JEKa2Fgju-26" value="process_refund_decision Tool: Rejected" style="whiteSpace=wrap;strokeWidth=2;" vertex="1" parent="1">
          <mxGeometry x="699" y="2408" width="260" height="78" as="geometry" />
        </mxCell>
        <mxCell id="naydUd_5CI0JEKa2Fgju-27" value="initiate_refund Tool" style="whiteSpace=wrap;strokeWidth=2;" vertex="1" parent="1">
          <mxGeometry x="109" y="2536" width="202" height="54" as="geometry" />
        </mxCell>
        <mxCell id="naydUd_5CI0JEKa2Fgju-28" value="Notify Manual Review" style="whiteSpace=wrap;strokeWidth=2;" vertex="1" parent="1">
          <mxGeometry x="412" y="2536" width="214" height="54" as="geometry" />
        </mxCell>
        <mxCell id="naydUd_5CI0JEKa2Fgju-29" value="Notify Rejection" style="whiteSpace=wrap;strokeWidth=2;" vertex="1" parent="1">
          <mxGeometry x="741" y="2536" width="176" height="54" as="geometry" />
        </mxCell>
        <mxCell id="naydUd_5CI0JEKa2Fgju-30" value="Process Late Delivery Claim" style="whiteSpace=wrap;strokeWidth=2;" vertex="1" parent="1">
          <mxGeometry x="415" y="1873" width="258" height="54" as="geometry" />
        </mxCell>
        <mxCell id="naydUd_5CI0JEKa2Fgju-31" value="Confirm Late?" style="rhombus;strokeWidth=2;whiteSpace=wrap;" vertex="1" parent="1">
          <mxGeometry x="467" y="2039" width="153" height="153" as="geometry" />
        </mxCell>
        <mxCell id="naydUd_5CI0JEKa2Fgju-32" value="Format Approval Message" style="whiteSpace=wrap;strokeWidth=2;" vertex="1" parent="1">
          <mxGeometry x="89" y="2652" width="241" height="54" as="geometry" />
        </mxCell>
        <mxCell id="naydUd_5CI0JEKa2Fgju-33" value="Format Review Message" style="whiteSpace=wrap;strokeWidth=2;" vertex="1" parent="1">
          <mxGeometry x="405" y="2652" width="229" height="54" as="geometry" />
        </mxCell>
        <mxCell id="naydUd_5CI0JEKa2Fgju-34" value="Format Rejection Message" style="whiteSpace=wrap;strokeWidth=2;" vertex="1" parent="1">
          <mxGeometry x="706" y="2652" width="247" height="54" as="geometry" />
        </mxCell>
        <mxCell id="naydUd_5CI0JEKa2Fgju-35" value="Format No Evidence Message" style="whiteSpace=wrap;strokeWidth=2;" vertex="1" parent="1">
          <mxGeometry x="1003" y="2640" width="260" height="78" as="geometry" />
        </mxCell>
        <mxCell id="naydUd_5CI0JEKa2Fgju-36" value="Format Invalid Order Message" style="whiteSpace=wrap;strokeWidth=2;" vertex="1" parent="1">
          <mxGeometry x="1313" y="2640" width="260" height="78" as="geometry" />
        </mxCell>
        <mxCell id="naydUd_5CI0JEKa2Fgju-37" value="Create Structured Response" style="whiteSpace=wrap;strokeWidth=2;" vertex="1" parent="1">
          <mxGeometry x="650" y="2768" width="259" height="54" as="geometry" />
        </mxCell>
        <mxCell id="naydUd_5CI0JEKa2Fgju-38" value="Respond to User" style="whiteSpace=wrap;strokeWidth=2;" vertex="1" parent="1">
          <mxGeometry x="692" y="2872" width="175" height="54" as="geometry" />
        </mxCell>
        <mxCell id="naydUd_5CI0JEKa2Fgju-39" value="" style="curved=1;startArrow=none;endArrow=block;exitX=0.5;exitY=1;entryX=0.5;entryY=0;rounded=0;" edge="1" parent="1" source="naydUd_5CI0JEKa2Fgju-1" target="naydUd_5CI0JEKa2Fgju-2">
          <mxGeometry relative="1" as="geometry">
            <Array as="points" />
          </mxGeometry>
        </mxCell>
        <mxCell id="naydUd_5CI0JEKa2Fgju-40" value="" style="curved=1;startArrow=none;endArrow=block;exitX=0.5;exitY=1;entryX=0.5;entryY=0;rounded=0;" edge="1" parent="1" source="naydUd_5CI0JEKa2Fgju-2" target="naydUd_5CI0JEKa2Fgju-3">
          <mxGeometry relative="1" as="geometry">
            <Array as="points" />
          </mxGeometry>
        </mxCell>
        <mxCell id="naydUd_5CI0JEKa2Fgju-41" value="" style="curved=1;startArrow=none;endArrow=block;exitX=0.5;exitY=1;entryX=0.5;entryY=0;rounded=0;" edge="1" parent="1" source="naydUd_5CI0JEKa2Fgju-3" target="naydUd_5CI0JEKa2Fgju-4">
          <mxGeometry relative="1" as="geometry">
            <Array as="points" />
          </mxGeometry>
        </mxCell>
        <mxCell id="naydUd_5CI0JEKa2Fgju-43" value="Yes" style="curved=1;startArrow=none;endArrow=block;exitX=0;exitY=0.85;entryX=0.5;entryY=0;rounded=0;" edge="1" parent="1" source="naydUd_5CI0JEKa2Fgju-4" target="naydUd_5CI0JEKa2Fgju-6">
          <mxGeometry relative="1" as="geometry">
            <Array as="points">
              <mxPoint x="1558" y="1124" />
              <mxPoint x="1420" y="940" />
            </Array>
          </mxGeometry>
        </mxCell>
        <mxCell id="naydUd_5CI0JEKa2Fgju-44" value="" style="curved=1;startArrow=none;endArrow=block;exitX=0.5;exitY=1;entryX=0.5;entryY=0;rounded=0;" edge="1" parent="1" source="naydUd_5CI0JEKa2Fgju-6" target="naydUd_5CI0JEKa2Fgju-7">
          <mxGeometry relative="1" as="geometry">
            <Array as="points" />
          </mxGeometry>
        </mxCell>
        <mxCell id="naydUd_5CI0JEKa2Fgju-45" value="" style="curved=1;startArrow=none;endArrow=block;exitX=0.5;exitY=1;entryX=0.5;entryY=0;rounded=0;" edge="1" parent="1" source="naydUd_5CI0JEKa2Fgju-7" target="naydUd_5CI0JEKa2Fgju-8">
          <mxGeometry relative="1" as="geometry">
            <Array as="points" />
          </mxGeometry>
        </mxCell>
        <mxCell id="naydUd_5CI0JEKa2Fgju-46" value="" style="curved=1;startArrow=none;endArrow=block;exitX=0.5;exitY=1;entryX=0.5;entryY=0;rounded=0;" edge="1" parent="1" source="naydUd_5CI0JEKa2Fgju-8" target="naydUd_5CI0JEKa2Fgju-9">
          <mxGeometry relative="1" as="geometry">
            <Array as="points" />
          </mxGeometry>
        </mxCell>
        <mxCell id="naydUd_5CI0JEKa2Fgju-47" value="" style="curved=1;startArrow=none;endArrow=block;exitX=0.5;exitY=1;entryX=0.5;entryY=0;rounded=0;" edge="1" parent="1" source="naydUd_5CI0JEKa2Fgju-9" target="naydUd_5CI0JEKa2Fgju-10">
          <mxGeometry relative="1" as="geometry">
            <Array as="points">
              <mxPoint x="1180" y="1560" />
              <mxPoint x="1100" y="1470" />
              <mxPoint x="1070" y="1410" />
              <mxPoint x="1110" y="1399" />
              <mxPoint x="695" y="1040" />
            </Array>
          </mxGeometry>
        </mxCell>
        <mxCell id="naydUd_5CI0JEKa2Fgju-48" value="No" style="curved=1;startArrow=none;endArrow=block;exitX=1;exitY=0.97;entryX=0.5;entryY=0;rounded=0;" edge="1" parent="1" source="naydUd_5CI0JEKa2Fgju-10" target="naydUd_5CI0JEKa2Fgju-11">
          <mxGeometry relative="1" as="geometry">
            <Array as="points">
              <mxPoint x="955" y="1224" />
            </Array>
          </mxGeometry>
        </mxCell>
        <mxCell id="naydUd_5CI0JEKa2Fgju-49" value="Yes" style="curved=1;startArrow=none;endArrow=block;exitX=0;exitY=0.7;entryX=0.5;entryY=0;rounded=0;" edge="1" parent="1" source="naydUd_5CI0JEKa2Fgju-11" target="naydUd_5CI0JEKa2Fgju-12">
          <mxGeometry relative="1" as="geometry">
            <Array as="points">
              <mxPoint x="673" y="1577" />
            </Array>
          </mxGeometry>
        </mxCell>
        <mxCell id="naydUd_5CI0JEKa2Fgju-50" value="No" style="curved=1;startArrow=none;endArrow=block;exitX=1;exitY=0.82;entryX=0.5;entryY=0;rounded=0;" edge="1" parent="1" source="naydUd_5CI0JEKa2Fgju-11" target="naydUd_5CI0JEKa2Fgju-13">
          <mxGeometry relative="1" as="geometry">
            <Array as="points">
              <mxPoint x="1133" y="1577" />
            </Array>
          </mxGeometry>
        </mxCell>
        <mxCell id="naydUd_5CI0JEKa2Fgju-51" value="Yes" style="curved=1;startArrow=none;endArrow=block;exitX=0;exitY=0.63;entryX=0.5;entryY=0;rounded=0;" edge="1" parent="1" source="naydUd_5CI0JEKa2Fgju-10" target="naydUd_5CI0JEKa2Fgju-14">
          <mxGeometry relative="1" as="geometry">
            <Array as="points">
              <mxPoint x="376" y="1224" />
            </Array>
          </mxGeometry>
        </mxCell>
        <mxCell id="naydUd_5CI0JEKa2Fgju-52" value="" style="curved=1;startArrow=none;endArrow=block;exitX=0.5;exitY=1;entryX=0.5;entryY=0;rounded=0;" edge="1" parent="1" source="naydUd_5CI0JEKa2Fgju-14" target="naydUd_5CI0JEKa2Fgju-15">
          <mxGeometry relative="1" as="geometry">
            <Array as="points" />
          </mxGeometry>
        </mxCell>
        <mxCell id="naydUd_5CI0JEKa2Fgju-53" value="" style="curved=1;startArrow=none;endArrow=block;exitX=0.5;exitY=1;entryX=0.5;entryY=0;rounded=0;" edge="1" parent="1" source="naydUd_5CI0JEKa2Fgju-15" target="naydUd_5CI0JEKa2Fgju-16">
          <mxGeometry relative="1" as="geometry">
            <Array as="points" />
          </mxGeometry>
        </mxCell>
        <mxCell id="naydUd_5CI0JEKa2Fgju-54" value="Score ≥ 70" style="curved=1;startArrow=none;endArrow=block;exitX=0;exitY=0.77;entryX=0.5;entryY=0;rounded=0;" edge="1" parent="1" source="naydUd_5CI0JEKa2Fgju-16" target="naydUd_5CI0JEKa2Fgju-17">
          <mxGeometry relative="1" as="geometry">
            <Array as="points">
              <mxPoint x="142" y="1837" />
            </Array>
          </mxGeometry>
        </mxCell>
        <mxCell id="naydUd_5CI0JEKa2Fgju-55" value="40-70" style="curved=1;startArrow=none;endArrow=block;exitX=0.28;exitY=1;entryX=0.08;entryY=0;rounded=0;" edge="1" parent="1" source="naydUd_5CI0JEKa2Fgju-16" target="naydUd_5CI0JEKa2Fgju-18">
          <mxGeometry relative="1" as="geometry">
            <Array as="points">
              <mxPoint x="318" y="1837" />
              <mxPoint x="318" y="2268" />
            </Array>
          </mxGeometry>
        </mxCell>
        <mxCell id="naydUd_5CI0JEKa2Fgju-56" value="Score &amp;lt; 40" style="curved=1;startArrow=none;endArrow=block;exitX=1;exitY=0.64;entryX=0.5;entryY=0;rounded=0;" edge="1" parent="1" source="naydUd_5CI0JEKa2Fgju-16" target="naydUd_5CI0JEKa2Fgju-19">
          <mxGeometry relative="1" as="geometry">
            <Array as="points">
              <mxPoint x="829" y="1837" />
            </Array>
          </mxGeometry>
        </mxCell>
        <mxCell id="naydUd_5CI0JEKa2Fgju-57" value="" style="curved=1;startArrow=none;endArrow=block;exitX=0.5;exitY=1;entryX=0.5;entryY=0;rounded=0;" edge="1" parent="1" source="naydUd_5CI0JEKa2Fgju-17" target="naydUd_5CI0JEKa2Fgju-20">
          <mxGeometry relative="1" as="geometry">
            <Array as="points" />
          </mxGeometry>
        </mxCell>
        <mxCell id="naydUd_5CI0JEKa2Fgju-58" value="No" style="curved=1;startArrow=none;endArrow=block;exitX=1;exitY=0.73;entryX=0.4;entryY=0;rounded=0;" edge="1" parent="1" source="naydUd_5CI0JEKa2Fgju-20" target="naydUd_5CI0JEKa2Fgju-18">
          <mxGeometry relative="1" as="geometry">
            <Array as="points">
              <mxPoint x="470" y="2268" />
            </Array>
          </mxGeometry>
        </mxCell>
        <mxCell id="naydUd_5CI0JEKa2Fgju-59" value="Yes" style="curved=1;startArrow=none;endArrow=block;exitX=0.5;exitY=1;entryX=0.5;entryY=0;rounded=0;" edge="1" parent="1" source="naydUd_5CI0JEKa2Fgju-20" target="naydUd_5CI0JEKa2Fgju-21">
          <mxGeometry relative="1" as="geometry">
            <Array as="points" />
          </mxGeometry>
        </mxCell>
        <mxCell id="naydUd_5CI0JEKa2Fgju-60" value="" style="curved=1;startArrow=none;endArrow=block;exitX=0.5;exitY=1;entryX=0.5;entryY=0.01;rounded=0;" edge="1" parent="1" source="naydUd_5CI0JEKa2Fgju-19" target="naydUd_5CI0JEKa2Fgju-22">
          <mxGeometry relative="1" as="geometry">
            <Array as="points" />
          </mxGeometry>
        </mxCell>
        <mxCell id="naydUd_5CI0JEKa2Fgju-61" value="" style="curved=1;startArrow=none;endArrow=block;exitX=0.5;exitY=1.01;entryX=0.5;entryY=0;rounded=0;" edge="1" parent="1" source="naydUd_5CI0JEKa2Fgju-22" target="naydUd_5CI0JEKa2Fgju-23">
          <mxGeometry relative="1" as="geometry">
            <Array as="points" />
          </mxGeometry>
        </mxCell>
        <mxCell id="naydUd_5CI0JEKa2Fgju-62" value="" style="curved=1;startArrow=none;endArrow=block;exitX=0.5;exitY=1;entryX=0.34;entryY=0;rounded=0;" edge="1" parent="1" source="naydUd_5CI0JEKa2Fgju-21" target="naydUd_5CI0JEKa2Fgju-24">
          <mxGeometry relative="1" as="geometry">
            <Array as="points">
              <mxPoint x="142" y="2383" />
            </Array>
          </mxGeometry>
        </mxCell>
        <mxCell id="naydUd_5CI0JEKa2Fgju-63" value="" style="curved=1;startArrow=none;endArrow=block;exitX=0.5;exitY=1;entryX=0.5;entryY=0;rounded=0;" edge="1" parent="1" source="naydUd_5CI0JEKa2Fgju-18" target="naydUd_5CI0JEKa2Fgju-25">
          <mxGeometry relative="1" as="geometry">
            <Array as="points" />
          </mxGeometry>
        </mxCell>
        <mxCell id="naydUd_5CI0JEKa2Fgju-64" value="" style="curved=1;startArrow=none;endArrow=block;exitX=0.5;exitY=1;entryX=0.5;entryY=0;rounded=0;" edge="1" parent="1" source="naydUd_5CI0JEKa2Fgju-23" target="naydUd_5CI0JEKa2Fgju-26">
          <mxGeometry relative="1" as="geometry">
            <Array as="points" />
          </mxGeometry>
        </mxCell>
        <mxCell id="naydUd_5CI0JEKa2Fgju-65" value="" style="curved=1;startArrow=none;endArrow=block;exitX=0.5;exitY=1;entryX=0.5;entryY=0;rounded=0;" edge="1" parent="1" source="naydUd_5CI0JEKa2Fgju-24" target="naydUd_5CI0JEKa2Fgju-27">
          <mxGeometry relative="1" as="geometry">
            <Array as="points" />
          </mxGeometry>
        </mxCell>
        <mxCell id="naydUd_5CI0JEKa2Fgju-66" value="" style="curved=1;startArrow=none;endArrow=block;exitX=0.5;exitY=1;entryX=0.5;entryY=0;rounded=0;" edge="1" parent="1" source="naydUd_5CI0JEKa2Fgju-25" target="naydUd_5CI0JEKa2Fgju-28">
          <mxGeometry relative="1" as="geometry">
            <Array as="points" />
          </mxGeometry>
        </mxCell>
        <mxCell id="naydUd_5CI0JEKa2Fgju-67" value="" style="curved=1;startArrow=none;endArrow=block;exitX=0.5;exitY=1;entryX=0.5;entryY=0;rounded=0;" edge="1" parent="1" source="naydUd_5CI0JEKa2Fgju-26" target="naydUd_5CI0JEKa2Fgju-29">
          <mxGeometry relative="1" as="geometry">
            <Array as="points" />
          </mxGeometry>
        </mxCell>
        <mxCell id="naydUd_5CI0JEKa2Fgju-68" value="" style="curved=1;startArrow=none;endArrow=block;exitX=0.38;exitY=1;entryX=0.5;entryY=0;rounded=0;" edge="1" parent="1" source="naydUd_5CI0JEKa2Fgju-12" target="naydUd_5CI0JEKa2Fgju-30">
          <mxGeometry relative="1" as="geometry">
            <Array as="points">
              <mxPoint x="544" y="1837" />
            </Array>
          </mxGeometry>
        </mxCell>
        <mxCell id="naydUd_5CI0JEKa2Fgju-69" value="" style="curved=1;startArrow=none;endArrow=block;exitX=0.5;exitY=1;entryX=0.5;entryY=0;rounded=0;" edge="1" parent="1" source="naydUd_5CI0JEKa2Fgju-30" target="naydUd_5CI0JEKa2Fgju-31">
          <mxGeometry relative="1" as="geometry">
            <Array as="points" />
          </mxGeometry>
        </mxCell>
        <mxCell id="naydUd_5CI0JEKa2Fgju-70" value="Yes" style="curved=1;startArrow=none;endArrow=block;exitX=0;exitY=0.8;entryX=0.69;entryY=0;rounded=0;" edge="1" parent="1" source="naydUd_5CI0JEKa2Fgju-31" target="naydUd_5CI0JEKa2Fgju-24">
          <mxGeometry relative="1" as="geometry">
            <Array as="points">
              <mxPoint x="290" y="2268" />
              <mxPoint x="290" y="2383" />
            </Array>
          </mxGeometry>
        </mxCell>
        <mxCell id="naydUd_5CI0JEKa2Fgju-71" value="No" style="curved=1;startArrow=none;endArrow=block;exitX=0.5;exitY=1;entryX=0.55;entryY=0;rounded=0;" edge="1" parent="1" source="naydUd_5CI0JEKa2Fgju-31" target="naydUd_5CI0JEKa2Fgju-18">
          <mxGeometry relative="1" as="geometry">
            <Array as="points">
              <mxPoint x="544" y="2268" />
            </Array>
          </mxGeometry>
        </mxCell>
        <mxCell id="naydUd_5CI0JEKa2Fgju-72" value="" style="curved=1;startArrow=none;endArrow=block;exitX=0.5;exitY=1;entryX=0.5;entryY=0;rounded=0;" edge="1" parent="1" source="naydUd_5CI0JEKa2Fgju-27" target="naydUd_5CI0JEKa2Fgju-32">
          <mxGeometry relative="1" as="geometry">
            <Array as="points" />
          </mxGeometry>
        </mxCell>
        <mxCell id="naydUd_5CI0JEKa2Fgju-73" value="" style="curved=1;startArrow=none;endArrow=block;exitX=0.5;exitY=1;entryX=0.5;entryY=0;rounded=0;" edge="1" parent="1" source="naydUd_5CI0JEKa2Fgju-28" target="naydUd_5CI0JEKa2Fgju-33">
          <mxGeometry relative="1" as="geometry">
            <Array as="points" />
          </mxGeometry>
        </mxCell>
        <mxCell id="naydUd_5CI0JEKa2Fgju-74" value="" style="curved=1;startArrow=none;endArrow=block;exitX=0.5;exitY=1;entryX=0.5;entryY=0;rounded=0;" edge="1" parent="1" source="naydUd_5CI0JEKa2Fgju-29" target="naydUd_5CI0JEKa2Fgju-34">
          <mxGeometry relative="1" as="geometry">
            <Array as="points" />
          </mxGeometry>
        </mxCell>
        <mxCell id="naydUd_5CI0JEKa2Fgju-75" value="" style="curved=1;startArrow=none;endArrow=block;exitX=0.5;exitY=1;entryX=0.5;entryY=0;rounded=0;" edge="1" parent="1" source="naydUd_5CI0JEKa2Fgju-13" target="naydUd_5CI0JEKa2Fgju-35">
          <mxGeometry relative="1" as="geometry">
            <Array as="points" />
          </mxGeometry>
        </mxCell>
        <mxCell id="naydUd_5CI0JEKa2Fgju-76" value="" style="curved=1;startArrow=none;endArrow=block;exitX=0.5;exitY=1;entryX=0.5;entryY=0;rounded=0;" edge="1" parent="1" source="naydUd_5CI0JEKa2Fgju-5" target="naydUd_5CI0JEKa2Fgju-36">
          <mxGeometry relative="1" as="geometry">
            <Array as="points" />
          </mxGeometry>
        </mxCell>
        <mxCell id="naydUd_5CI0JEKa2Fgju-77" value="" style="curved=1;startArrow=none;endArrow=block;exitX=0.5;exitY=1;entryX=0;entryY=0.28;rounded=0;" edge="1" parent="1" source="naydUd_5CI0JEKa2Fgju-32" target="naydUd_5CI0JEKa2Fgju-37">
          <mxGeometry relative="1" as="geometry">
            <Array as="points">
              <mxPoint x="209" y="2743" />
            </Array>
          </mxGeometry>
        </mxCell>
        <mxCell id="naydUd_5CI0JEKa2Fgju-78" value="" style="curved=1;startArrow=none;endArrow=block;exitX=0.5;exitY=1;entryX=0;entryY=0.02;rounded=0;" edge="1" parent="1" source="naydUd_5CI0JEKa2Fgju-33" target="naydUd_5CI0JEKa2Fgju-37">
          <mxGeometry relative="1" as="geometry">
            <Array as="points">
              <mxPoint x="519" y="2743" />
            </Array>
          </mxGeometry>
        </mxCell>
        <mxCell id="naydUd_5CI0JEKa2Fgju-79" value="" style="curved=1;startArrow=none;endArrow=block;exitX=0.5;exitY=1;entryX=0.6;entryY=0;rounded=0;" edge="1" parent="1" source="naydUd_5CI0JEKa2Fgju-34" target="naydUd_5CI0JEKa2Fgju-37">
          <mxGeometry relative="1" as="geometry">
            <Array as="points">
              <mxPoint x="829" y="2743" />
            </Array>
          </mxGeometry>
        </mxCell>
        <mxCell id="naydUd_5CI0JEKa2Fgju-80" value="" style="curved=1;startArrow=none;endArrow=block;exitX=0.5;exitY=1;entryX=1;entryY=0.14;rounded=0;" edge="1" parent="1" source="naydUd_5CI0JEKa2Fgju-35" target="naydUd_5CI0JEKa2Fgju-37">
          <mxGeometry relative="1" as="geometry">
            <Array as="points">
              <mxPoint x="1133" y="2743" />
            </Array>
          </mxGeometry>
        </mxCell>
        <mxCell id="naydUd_5CI0JEKa2Fgju-81" value="" style="curved=1;startArrow=none;endArrow=block;exitX=0.5;exitY=1;entryX=1;entryY=0.31;rounded=0;" edge="1" parent="1" source="naydUd_5CI0JEKa2Fgju-36" target="naydUd_5CI0JEKa2Fgju-37">
          <mxGeometry relative="1" as="geometry">
            <Array as="points">
              <mxPoint x="1443" y="2743" />
            </Array>
          </mxGeometry>
        </mxCell>
        <mxCell id="naydUd_5CI0JEKa2Fgju-82" value="" style="curved=1;startArrow=none;endArrow=block;exitX=0.5;exitY=1;entryX=0.5;entryY=0;rounded=0;" edge="1" parent="1" source="naydUd_5CI0JEKa2Fgju-37" target="naydUd_5CI0JEKa2Fgju-38">
          <mxGeometry relative="1" as="geometry">
            <Array as="points" />
          </mxGeometry>
        </mxCell>
        <mxCell id="naydUd_5CI0JEKa2Fgju-83" value="" style="shape=waypoint;sketch=0;size=6;pointerEvents=1;points=[];fillColor=default;resizable=0;rotatable=0;perimeter=centerPerimeter;snapToPoint=1;strokeWidth=2;" vertex="1" parent="1">
          <mxGeometry x="1440" y="2510" width="20" height="20" as="geometry" />
        </mxCell>
      </root>
    </mxGraphModel>
  </diagram>
</mxfile>
